<svg width="203" height="56" viewBox="0 0 203 56" fill="none" xmlns="http://www.w3.org/2000/svg">
<path d="M94.658 24.8265H98.3942V26.321C99.1137 25.5682 99.7281 25.059 100.237 24.7933C100.78 24.5165 101.461 24.3781 102.28 24.3781C104.106 24.3781 105.551 25.1752 106.614 26.7693C107.787 25.1752 109.376 24.3781 111.379 24.3781C115.022 24.3781 116.843 26.5866 116.843 31.0036V41H113.09V32.0166C113.09 30.4667 112.902 29.3708 112.525 28.7287C112.138 28.0756 111.501 27.749 110.616 27.749C109.586 27.749 108.833 28.1365 108.357 28.9114C107.892 29.6863 107.66 30.9317 107.66 32.6476V41H103.907V32.0664C103.907 29.1881 103.077 27.749 101.416 27.749C100.365 27.749 99.5953 28.142 99.1082 28.928C98.6322 29.714 98.3942 30.9538 98.3942 32.6476V41H94.658V24.8265ZM125.336 37.9944L118.063 24.8265H122.397L127.345 34.1254L131.962 24.8265H136.179L123.294 49.8008H119.026L125.336 37.9944ZM146.499 15.3615V31.9501C146.499 33.9317 146.361 35.4096 146.084 36.3837C145.807 37.4908 145.337 38.4262 144.673 39.19C143.377 40.7066 141.662 41.4649 139.525 41.4649C137.909 41.4649 136.398 41.0443 134.992 40.2029L136.885 36.8985C137.826 37.5295 138.706 37.845 139.525 37.845C140.676 37.845 141.473 37.4077 141.916 36.5332C142.381 35.6586 142.614 34.131 142.614 31.9501V15.3615H146.499ZM150.41 32.797C150.41 30.4612 151.245 28.4741 152.917 26.8357C154.589 25.1973 156.625 24.3781 159.028 24.3781C161.441 24.3781 163.489 25.2029 165.172 26.8523C166.832 28.5018 167.662 30.5276 167.662 32.9298C167.662 35.3542 166.827 37.3856 165.155 39.024C163.472 40.6513 161.408 41.4649 158.961 41.4649C156.537 41.4649 154.506 40.6347 152.867 38.9742C151.229 37.3358 150.41 35.2767 150.41 32.797ZM154.229 32.8634C154.229 34.4797 154.661 35.7583 155.524 36.6992C156.41 37.6513 157.578 38.1273 159.028 38.1273C160.489 38.1273 161.657 37.6568 162.531 36.7158C163.406 35.7749 163.843 34.5184 163.843 32.9465C163.843 31.3745 163.406 30.118 162.531 29.1771C161.646 28.225 160.478 27.749 159.028 27.749C157.6 27.749 156.443 28.225 155.557 29.1771C154.672 30.1291 154.229 31.3579 154.229 32.8634ZM174.612 12.9537V26.7029C176.106 25.1531 177.8 24.3781 179.693 24.3781C181.874 24.3781 183.689 25.1918 185.139 26.8191C186.589 28.4354 187.315 30.4501 187.315 32.8634C187.315 35.3542 186.584 37.4133 185.123 39.0406C183.672 40.6568 181.84 41.4649 179.626 41.4649C177.755 41.4649 176.084 40.7454 174.612 39.3063V41H170.875V12.9537H174.612ZM183.495 33.0295C183.495 31.4797 183.075 30.2177 182.233 29.2435C181.381 28.2472 180.313 27.749 179.029 27.749C177.656 27.749 176.538 28.2306 175.674 29.1937C174.822 30.1457 174.396 31.3856 174.396 32.9132C174.396 34.4852 174.816 35.7417 175.658 36.6826C176.499 37.6457 177.606 38.1273 178.979 38.1273C180.274 38.1273 181.348 37.6457 182.2 36.6826C183.064 35.7085 183.495 34.4907 183.495 33.0295ZM199.909 27.583L196.821 29.2269C196.334 28.2306 195.73 27.7324 195.011 27.7324C194.668 27.7324 194.374 27.8486 194.131 28.0811C193.887 28.3025 193.766 28.5903 193.766 28.9446C193.766 29.5645 194.485 30.1789 195.924 30.7878C197.906 31.6402 199.24 32.4262 199.926 33.1457C200.612 33.8653 200.956 34.8339 200.956 36.0516C200.956 37.6125 200.38 38.9188 199.229 39.9705C198.111 40.9668 196.76 41.4649 195.177 41.4649C192.465 41.4649 190.544 40.1421 189.415 37.4963L192.603 36.0184C193.046 36.7933 193.384 37.286 193.616 37.4963C194.07 37.917 194.612 38.1273 195.243 38.1273C196.505 38.1273 197.136 37.5516 197.136 36.4003C197.136 35.7361 196.649 35.1162 195.675 34.5406C195.299 34.3524 194.922 34.1697 194.546 33.9926C194.17 33.8155 193.788 33.6328 193.4 33.4446C192.315 32.9132 191.551 32.3819 191.109 31.8505C190.544 31.1752 190.262 30.3062 190.262 29.2435C190.262 27.8376 190.743 26.6752 191.706 25.7564C192.692 24.8376 193.887 24.3781 195.293 24.3781C197.363 24.3781 198.902 25.4464 199.909 27.583Z" fill="#00717D"/>
<path fill-rule="evenodd" clip-rule="evenodd" d="M44.3402 6.80822C41.178 9.59635 39.2926 12.5954 37.2178 18.1375C36.46 20.1627 36.105 20.5143 34.5382 20.7941C33.5451 20.9714 30.0712 20.7454 26.8193 20.2908C20.6061 19.4234 16.7467 19.5916 14.21 20.8408C12.9543 21.4591 12.679 21.4561 12.1231 20.8187C11.4464 20.0422 10.5478 20.2546 10.5478 21.1909C10.5478 21.4968 10.7065 21.5957 10.9006 21.4109C11.3694 20.9643 13.1847 22.5571 13.1847 23.4154C13.1847 24.1312 13.8308 24.313 14.4109 23.7605C14.6018 23.5787 14.5164 23.1533 14.2216 22.8147C13.4637 21.9453 17.6549 21.4028 20.4727 22.0056C29.0602 23.8434 33.8541 32.6623 31.6265 42.525C30.8058 46.158 30.5342 46.4176 28.296 45.7145C23.6734 44.2614 18.4465 37.5766 17.6475 32.0963C17.3379 29.9721 17.9017 25.5195 18.7402 23.4632C19.0335 22.7449 18.8083 22.5842 17.5119 22.5842C15.4335 22.5842 14.3882 24.859 15.6671 26.5984C16.405 27.6014 16.3876 27.8164 15.4704 29.0339C14.644 30.1309 14.529 30.8476 14.8265 33.0446C15.9815 41.5717 24.5088 49.2043 33.8062 50.031C40.4908 50.6257 47.8605 47.6758 51.9478 42.7706C54.0157 40.2889 55.3758 39.5149 55.3758 40.8208C55.3758 41.4768 73.3661 49.2058 74.8892 49.2048C75.7436 49.2038 78.1981 44.1544 77.61 43.6069C77.4191 43.4286 73.0687 41.5807 67.9425 39.4998C62.0489 37.1075 58.2169 35.8181 57.5186 35.9919C56.4433 36.2596 56.4238 36.1567 56.7586 32.0028C57.43 23.6897 53.8158 16.9075 46.3174 12.4066C44.9082 11.5607 44.9056 11.5623 44.5375 13.1585C44.2759 14.2911 44.3729 14.822 44.8702 14.9797C46.5146 15.5016 50.7285 19.9136 52.0733 22.5214C53.3364 24.971 53.53 25.9474 53.53 29.8672C53.53 33.7874 53.338 34.7543 52.0849 37.1502C51.2907 38.6695 49.9532 40.648 49.1136 41.5466L47.5868 43.1805L47.2119 40.32C47.0051 38.7469 46.1518 35.1858 45.3154 32.4062C43.065 24.9308 42.7043 21.6414 43.5497 16.3057C44.4309 10.7446 44.9356 9.08202 46.6085 6.23111C47.3289 5.00405 47.83 4 47.7218 4C47.6137 4 46.0917 5.26372 44.3402 6.80822ZM29.1868 9.77516C24.8474 11.513 26.0498 18.7282 30.8944 20.0221C33.148 20.6243 35.5065 19.5921 36.3598 17.6302C38.3 13.1695 33.5899 8.01217 29.1868 9.77516ZM34.8251 9.83342C34.8525 10.5261 36.5565 12.3011 37.5369 12.6582C38.1339 12.8762 38.7024 12.5693 39.2926 11.7114C39.773 11.0133 40.0689 10.3498 39.9502 10.2373C39.4761 9.78571 34.8087 9.41804 34.8251 9.83342ZM23.4161 13.4568C22.2848 14.2384 20.5407 15.7643 19.5403 16.8472L17.7213 18.8171L19.4369 18.9763C21.7068 19.1873 25.4281 16.139 25.8911 13.6904C26.063 12.7808 26.0393 12.0364 25.8384 12.0364C25.6374 12.0364 24.5473 12.6758 23.4161 13.4568ZM5.79337 20.1984C5.78809 20.9156 5.63726 21.1075 5.38095 20.7233C5.09722 20.2978 4.23546 20.7212 2.48875 22.1432C1.11965 23.2577 0 24.3944 0 24.6691C0 25.5396 8.097 33.6342 8.96772 33.6342C9.42602 33.6342 10.8247 32.6402 12.0767 31.4257L14.3524 29.2172L12.6763 28.8666C11.7539 28.6738 11.1232 28.398 11.274 28.2544C11.4254 28.1107 12.3161 28.2478 13.2549 28.5592C14.5781 28.9987 15.0554 28.9837 15.3829 28.4919C16.0658 27.4673 16.001 27.3699 11.8114 23.1281C7.71254 18.9783 5.80866 18.0517 5.79337 20.1984ZM6.16148 23.1809C5.99325 23.5812 5.86826 23.4622 5.84294 22.877C5.82026 22.3476 5.94473 22.0513 6.11982 22.218C6.29491 22.3848 6.3139 22.8182 6.16148 23.1809ZM9.37223 27.3252C10.1638 27.7345 10.4966 28.0781 10.1116 28.0891C9.20346 28.1152 6.32234 25.3713 6.34976 24.5064C6.36136 24.1397 6.7221 24.4567 7.15192 25.2106C7.58174 25.9645 8.58062 26.9158 9.37223 27.3252ZM41.0962 44.9982C41.1311 46.3659 40.9243 46.608 39.4882 46.8817C35.748 47.594 35.7153 47.5302 37.809 43.5572L39.7261 39.9192L40.3911 41.6736C40.7566 42.639 41.0741 44.1348 41.0962 44.9982Z" fill="#00717D"/>
</svg>
